inDegrees=no
num_controls=7
num_derivatives=13
num_iterations=47
num_multipliers=7
num_parameters=0
num_slacks=7
num_states=26
objective=0.472036
objective_accelerations=0.056807
objective_balance=0.000639
objective_effort=0.015564
objective_height=0.390082
objective_ligament=0.008943
solver_duration=754.569308
status=Solve_Succeeded
success=true
DataType=double
version=3
OpenSimVersion=4.5
endheader
time	/jointset/ground_pelvis/pelvis_tilt/value	/jointset/ground_pelvis/pelvis_tx/value	/jointset/ground_pelvis/pelvis_ty/value	/jointset/hip_l/hip_flexion_l/value	/jointset/hip_l/hip_adduction_l/value	/jointset/hip_l/hip_rotation_l/value	/jointset/back/lumbar_extension/value	/jointset/patellofemoral_l/patellar_flexion_l/value	/jointset/knee_l/knee_flexion_l/value	/jointset/knee_l/knee_adduction_l/value	/jointset/knee_l/knee_rotation_l/value	/jointset/ankle_l/ankle_angle_l/value	/jointset/subtalar_l/subtalar_angle_l/value	/jointset/ground_pelvis/pelvis_tilt/speed	/jointset/ground_pelvis/pelvis_tx/speed	/jointset/ground_pelvis/pelvis_ty/speed	/jointset/hip_l/hip_flexion_l/speed	/jointset/hip_l/hip_adduction_l/speed	/jointset/hip_l/hip_rotation_l/speed	/jointset/back/lumbar_extension/speed	/jointset/patellofemoral_l/patellar_flexion_l/speed	/jointset/knee_l/knee_flexion_l/speed	/jointset/knee_l/knee_adduction_l/speed	/jointset/knee_l/knee_rotation_l/speed	/jointset/ankle_l/ankle_angle_l/speed	/jointset/subtalar_l/subtalar_angle_l/speed	/forceset/tau_hip_flexion_l	/forceset/tau_hip_adduction_l	/forceset/tau_hip_rotation_l	/forceset/tau_knee_flexion_l	/forceset/tau_ankle_angle_l	/forceset/tau_subtalar_angle_l	/forceset/tau_lumbar_extension	lambda_cid13_p0	lambda_cid13_p1	lambda_cid13_p2	lambda_cid13_p3	lambda_cid13_p4	lambda_cid13_p5	lambda_cid14_p0	/jointset/ground_pelvis/pelvis_tilt/accel	/jointset/ground_pelvis/pelvis_tx/accel	/jointset/ground_pelvis/pelvis_ty/accel	/jointset/hip_l/hip_flexion_l/accel	/jointset/hip_l/hip_adduction_l/accel	/jointset/hip_l/hip_rotation_l/accel	/jointset/back/lumbar_extension/accel	/jointset/patellofemoral_l/patellar_flexion_l/accel	/jointset/knee_l/knee_flexion_l/accel	/jointset/knee_l/knee_adduction_l/accel	/jointset/knee_l/knee_rotation_l/accel	/jointset/ankle_l/ankle_angle_l/accel	/jointset/subtalar_l/subtalar_angle_l/accel	gamma_cid13_p0	gamma_cid13_p1	gamma_cid13_p2	gamma_cid13_p3	gamma_cid13_p4	gamma_cid13_p5	gamma_cid14_p0
0	0.05560886597837927	0.1042242268628851	0.9049289623495225	0.1266922784136757	-0.3522448486349892	-0.228853779005729	-0.2144969558742783	0.2051545070141749	0.2051545070141877	-0.1382821181779838	-0.1554378471911553	0.09024313228550125	0.09841201690348751	0	0	0	0	0	0	0	0	0	0	0	0	0	0.1102179859963853	-0.02844631461387455	-0.006675684622599614	-0.2403068667865775	0.1833292965951599	-0.08994478883846678	-0.04373448672237142	27.29878562303661	36.41593505015069	-8.522800179813427	-17.81422912565058	-440.6370607999442	-36.11361979700653	-25.81477216968011	-2.819278214726033	-0.9734866506478171	-0.7725705802328016	10.27105449985548	0.008904483462981436	2.701863180888097	-3.508489718549688	9.876051976087327	9.876051976081708	2.509017895254955	-0.7885104991054026	3.368561967003632	1.043130411212697	3.846738593056402e-08	8.551674893204536e-07	-6.911897662163665e-07	7.382381096773784e-08	1.973679307064053e-07	8.750321872243064e-07	1.529772143414514e-07
0.01	0.05547489348829111	0.1041774418305293	0.9048913056556479	0.1271879913681492	-0.3522469406456954	-0.228713535744389	-0.2146736954644037	0.2056354133352712	0.205635413335312	-0.1381655699195353	-0.1554690145314964	0.09040815521308997	0.09846026578040312	-0.02667921688348121	-0.009192186460673855	-0.007529086093236238	0.09838738543688774	-0.0007837359842800907	0.0280337953439066	-0.03487085186666588	0.09559732663334579	0.09559732663333649	0.02240671996868849	-0.006205286862242379	0.03285629379718324	0.009206185321003552	0.1083263406992372	-0.03938047787784327	-0.006407823581455481	-0.2398862288637079	0.1811201259942335	-0.07987977226071377	-0.0418117116799652	27.25374658062235	31.95668270381477	-7.702329892752418	-18.85745893799271	-440.8602223750747	-45.31029454157077	-25.81491838625213	-2.574949038106022	-0.8673468765413318	-0.7427002480760619	9.509303334499885	-0.1768183013628019	2.852039454021288	-3.404822997760457	9.313951772826519	9.313951772828352	1.9711202197411	-0.5324426054994547	3.221938379323265	0.7927721179467719	-4.013090861387244e-09	6.627715649779533e-07	-2.562897832640163e-07	7.050676570341347e-08	-7.1627637721715e-08	3.960341936571485e-07	9.588860805489763e-08
0.02	0.05507758770680117	0.1040436824870148	0.9047784335760005	0.1286449227307757	-0.3522678311486367	-0.2282933741810227	-0.2151848315885968	0.2070547686759122	0.2070547686759073	-0.1378520302269118	-0.1555614157055381	0.09089729613730885	0.09858725841560942	-0.05266665828491002	-0.01739486223174392	-0.01504307715455186	0.1922436816295646	-0.003759698448113675	0.05598366040299824	-0.06687930681479703	0.1876898039014228	0.1876898039014218	0.03939828681998801	-0.01224676675311049	0.0648235993242726	0.01574875165811067	0.1064346954019313	-0.05031464114189955	-0.006139962540641673	-0.2394655909408965	0.1789109553932516	-0.06981475568306937	-0.03988893663762627	27.25268179330209	27.50235265257045	-6.897063027211733	-19.95249497065957	-440.2953792368717	-54.32484218815658	-25.81548492865977	-2.680923118315977	-0.7755845127267383	-0.7695515738486933	9.364836651013297	-0.429540812447696	2.685077123925106	-2.936010334843004	9.175082103033491	9.175082103031396	1.425987271777204	-0.7557491048304804	3.190764312985209	0.510406614433544	-4.649356765333851e-08	4.703756406354531e-07	1.786101996883338e-07	6.718972043908911e-08	-3.406232061498352e-07	-8.296379991000928e-08	3.880000176834392e-08
0.03	0.05442306542203193	0.1038307780954202	0.9045905464942751	0.1310237687524551	-0.3523238680562558	-0.2275969510702879	-0.2160050887402896	0.209380016940534	0.2093800169405335	-0.1373837600190977	-0.1557142928129087	0.09170126101869965	0.09877236209375048	-0.07817082655241969	-0.02522667276508526	-0.02252047570021872	0.2833195833023595	-0.007242151520364384	0.08314027362537831	-0.09706288365928652	0.2769795359916767	0.2769795359916865	0.05455020128669628	-0.01823662544122321	0.09577383298584007	0.02143941040974625	0.1032955102908673	-0.04494824734234912	-0.005503955898810898	-0.2348210947754392	0.1721297673157984	-0.07165113094396514	-0.03768060883809354	24.91553156482295	28.51343810038828	-6.834754637556777	-17.93696712482996	-440.6201937411907	-51.57080958338955	-25.81651743631123	-2.475116156397797	-0.7930643999643947	-0.7348236829166587	8.948072056567941	-0.2768694123988844	2.706837903414338	-3.043145380271334	8.748864277426664	8.74886427742949	1.604062398686362	-0.5067807122427572	3.01783508057216	0.6234145096519527	-4.369006818465495e-08	7.184923578952235e-07	-1.970466499076465e-08	1.000238029903701e-07	-3.983398875144857e-07	1.544902296939936e-07	8.739348726870883e-08
0.04	0.05351551095952177	0.1035383385832274	0.9043282874894961	0.1343071948171071	-0.3524085838661624	-0.2266337849309333	-0.2171239044646279	0.2125867516291624	0.212586751629158	-0.1367551168937459	-0.1559243037994029	0.09280886467426681	0.09901937616023272	-0.1032730938372	-0.03330188635136341	-0.02991746176528515	0.3731596902213564	-0.009495478904031858	0.1093322661285675	-0.1265910213445981	0.363987088698146	0.3639870886981768	0.07147287033616355	-0.02367354258697484	0.1255513541605977	0.02813082932632067	0.1001563251798641	-0.03958185354275188	-0.004867949257248136	-0.2301765986098486	0.165348579238405	-0.07348750620478739	-0.03547228103857902	22.61881841371541	29.53153467641042	-6.78966056304294	-15.97048821798682	-440.2163005606868	-48.64610153733053	-25.81712544618531	-2.600542921770512	-0.8242651233138094	-0.7534690777286205	9.117677700253688	-0.183715674731027	2.49215298008692	-2.804922503007675	8.718646226276483	8.718646226276464	1.780138188329043	-0.6451607963581962	2.956221815623572	0.7105586474214336	-3.995287848379336e-08	9.756918100333913e-07	-2.310755059096869e-07	1.336032696203235e-07	-4.517003031664872e-07	4.067164659613195e-07	1.381659849708659e-07
0.05	0.05235895544000032	0.1031648098506534	0.9039920918182498	0.138481210054488	-0.3525123302762912	-0.2254139381544994	-0.2185326836225852	0.2166522995613139	0.2166522995613288	-0.1359538157912086	-0.1561874193250682	0.09420890860174296	0.09933562300444893	-0.1279142395117579	-0.04135434017004878	-0.03733622071505832	0.4611733157860229	-0.0113158162462405	0.1345224756027442	-0.1549093997454515	0.4486843198405766	0.4486843198406285	0.08851046357779924	-0.02890492944572627	0.1542918551595039	0.03500474091191772	0.09678464183774989	-0.03812017093295146	-0.004235712316480837	-0.2270120091670373	0.1605560307481854	-0.07237253820693691	-0.03290515877975044	21.18435916451248	29.18112903543766	-6.599767222690425	-15.21078834843804	-439.632295813966	-48.57671500035055	-25.81630959318479	-2.377326086500402	-0.7882805193992295	-0.7383523095599172	8.572699264657862	-0.1905949892247749	2.515331060592435	-2.806983934049619	8.279506830599205	8.279506830602205	1.624175304821278	-0.4554943606561272	2.808152613060303	0.6586123227912234	-4.542978150018058e-08	9.004121255939068e-07	-1.905990035154877e-07	1.320357248473536e-07	-5.221014347316104e-07	3.415056086225448e-07	1.292295233364497e-07
